<svg xmlns="http://www.w3.org/2000/svg" xmlns:xlink="http://www.w3.org/1999/xlink" width="320" height="636" viewBox="0 0 320 636">
  <defs>
    <rect id="hot-100-bg-mobile-a" width="320" height="636"/>
  </defs>
  <g fill="none" fill-rule="evenodd">
    <mask id="hot-100-bg-mobile-b" fill="#fff">
      <use xlink:href="#hot-100-bg-mobile-a"/>
    </mask>
    <use fill="#FFF" xlink:href="#hot-100-bg-mobile-a"/>
    <g fill-rule="nonzero" stroke-linejoin="round" mask="url(#hot-100-bg-mobile-b)">
      <g transform="matrix(0 1 1 0 -67 0)">
        <polygon fill="#352970" stroke="#352970" points="635.721 29.203 588.173 66.268 622.243 123.176"/>
        <polygon fill="#34286D" stroke="#34286D" points="639.839 19.843 635.721 29.203 622.243 123.176"/>
        <polygon fill="#3354D1" stroke="#3354D1" points="639.839 395.36 567.955 315.24 573.197 405.843"/>
        <polygon fill="#34368C" stroke="#34368C" points="639.839 195.059 598.281 184.202 635.721 212.656"/>
        <polygon fill="#343387" stroke="#343387" points="639.839 195.059 614.006 163.61 598.281 184.202"/>
        <polygon fill="#343182" stroke="#343182" points="639.839 195.059 622.243 123.176 614.006 163.61"/>
        <polygon fill="#342D77" stroke="#342D77" points="639.839 195.059 639.839 19.843 622.243 123.176"/>
        <polygon fill="#3540A5" stroke="#3540A5" points="639.839 276.677 568.704 234.371 567.955 315.24"/>
        <polygon fill="#334EC4" stroke="#334EC4" points="639.839 276.677 567.955 315.24 639.839 395.36"/>
        <polygon fill="#343994" stroke="#343994" points="639.839 226.508 635.721 212.656 568.704 234.371"/>
        <polygon fill="#333891" stroke="#333891" points="639.839 226.508 639.839 195.059 635.721 212.656"/>
        <polygon fill="#343C9B" stroke="#343C9B" points="639.839 266.568 639.839 226.508 568.704 234.371"/>
        <polygon fill="#343FA2" stroke="#343FA2" points="639.839 266.568 568.704 234.371 639.839 276.677"/>
        <polygon fill="#362A73" stroke="#362A73" points="622.243 123.176 588.173 66.268 578.813 73.756"/>
        <polygon fill="#35378F" stroke="#35378F" points="635.721 212.656 598.281 184.202 568.704 234.371"/>
        <polygon fill="#354ABB" stroke="#354ABB" points="573.197 405.843 567.955 315.24 536.881 356.797"/>
        <polygon fill="#36358C" stroke="#36358C" points="598.281 184.202 567.581 202.547 568.704 234.371"/>
        <polygon fill="#362C77" stroke="#362C77" points="622.243 123.176 578.813 73.756 590.793 137.028"/>
        <polygon fill="#352F7D" stroke="#352F7D" points="622.243 123.176 590.793 137.028 614.006 163.61"/>
        <polygon fill="#372B74" stroke="#372B74" points="590.793 137.028 578.813 73.756 562.34 80.869"/>
        <polygon fill="#382C77" stroke="#382C77" points="590.793 137.028 562.34 80.869 552.605 117.934"/>
        <polygon fill="#353182" stroke="#353182" points="614.006 163.61 590.793 137.028 598.281 184.202"/>
        <polygon fill="#373080" stroke="#373080" points="598.281 184.202 590.793 137.028 554.103 154.625"/>
        <polygon fill="#373D9E" stroke="#373D9E" points="568.704 234.371 521.905 293.15 567.955 315.24"/>
        <polygon fill="#373285" stroke="#373285" points="598.281 184.202 554.103 154.625 567.581 202.547"/>
        <polygon fill="#382E7B" stroke="#382E7B" points="590.793 137.028 552.605 117.934 554.103 154.625"/>
        <polygon fill="#37296F" stroke="#37296F" points="588.173 66.268 575.443 50.543 578.813 73.756"/>
        <polygon fill="#383893" stroke="#383893" points="568.704 234.371 532.014 224.262 521.905 293.15"/>
        <polygon fill="#38286F" stroke="#38286F" points="578.813 73.756 575.443 50.543 563.463 61.401"/>
        <polygon fill="#382970" stroke="#382970" points="578.813 73.756 563.463 61.401 562.34 80.869"/>
        <polygon fill="#37368D" stroke="#37368D" points="568.704 234.371 567.581 202.547 532.014 224.262"/>
        <polygon fill="#3548B7" stroke="#3548B7" points="573.197 405.843 536.881 356.797 487.835 420.444"/>
        <polygon fill="#393387" stroke="#393387" points="554.103 154.625 527.147 223.888 532.014 224.262"/>
        <polygon fill="#383387" stroke="#383387" points="567.581 202.547 554.103 154.625 532.014 224.262"/>
        <polygon fill="#3641A8" stroke="#3641A8" points="567.955 315.24 521.905 293.15 536.881 356.797"/>
        <polygon fill="#3A2B75" stroke="#3A2B75" points="562.34 80.869 515.166 111.569 552.605 117.934"/>
        <polygon fill="#3A2A72" stroke="#3A2A72" points="563.463 61.401 515.166 111.569 562.34 80.869"/>
        <polygon fill="#3B286F" stroke="#3B286F" points="563.463 61.401 510.673 3.37 515.166 111.569"/>
        <polygon fill="#393790" stroke="#393790" points="532.014 224.262 527.147 223.888 521.905 293.15"/>
        <polygon fill="#3A3080" stroke="#3A3080" points="554.103 154.625 513.668 131.787 527.147 223.888"/>
        <polygon fill="#3A2D7A" stroke="#3A2D7A" points="554.103 154.625 552.605 117.934 513.668 131.787"/>
        <polygon fill="#3B2C77" stroke="#3B2C77" points="552.605 117.934 515.166 111.569 513.668 131.787"/>
        <polygon fill="#40276F" stroke="#40276F" points="515.166 111.569 510.673 3.37 421.942 62.149"/>
        <polygon fill="#402973" stroke="#402973" points="515.166 111.569 421.942 62.149 496.446 119.806"/>
        <polygon fill="#3D2D7C" stroke="#3D2D7C" points="527.147 223.888 499.816 128.043 456.012 129.915"/>
        <polygon fill="#3C2E7E" stroke="#3C2E7E" points="527.147 223.888 513.668 131.787 499.816 128.043"/>
        <polygon fill="#383DA0" stroke="#383DA0" points="536.881 356.797 521.905 293.15 455.263 355.674"/>
        <polygon fill="#373FA3" stroke="#373FA3" points="536.881 356.797 455.263 355.674 487.835 420.444"/>
        <polygon fill="#3B368F" stroke="#3B368F" points="527.147 223.888 426.06 292.027 521.905 293.15"/>
        <polygon fill="#3A3894" stroke="#3A3894" points="521.905 293.15 435.42 321.23 455.263 355.674"/>
        <polygon fill="#3E3083" stroke="#3E3083" points="527.147 223.888 456.012 129.915 426.06 292.027"/>
        <polygon fill="#432D7C" stroke="#432D7C" points="456.012 129.915 368.029 175.965 426.06 292.027"/>
        <polygon fill="#3B368F" stroke="#3B368F" points="521.905 293.15 426.06 292.027 435.42 321.23"/>
        <polygon fill="#3C2B77" stroke="#3C2B77" points="515.166 111.569 499.816 128.043 513.668 131.787"/>
        <polygon fill="#3D2B77" stroke="#3D2B77" points="515.166 111.569 496.446 119.806 499.816 128.043"/>
        <polygon fill="#422974" stroke="#422974" points="496.446 119.806 421.942 62.149 456.012 129.915"/>
        <polygon fill="#442D7E" stroke="#442D7E" points="426.06 292.027 368.029 175.965 370.275 262.076"/>
        <polygon fill="#3F2B77" stroke="#3F2B77" points="499.816 128.043 496.446 119.806 456.012 129.915"/>
        <polygon fill="#373A98" stroke="#373A98" points="487.835 420.444 387.498 378.887 486.338 452.642"/>
        <polygon fill="#393893" stroke="#393893" points="487.835 420.444 455.263 355.674 387.498 378.887"/>
        <polygon fill="#393388" stroke="#393388" points="486.338 452.642 387.498 378.887 319.732 452.642"/>
        <polygon fill="#462974" stroke="#462974" points="456.012 129.915 421.942 62.149 371.773 143.393"/>
        <polygon fill="#472A77" stroke="#472A77" points="456.012 129.915 371.773 143.393 368.029 175.965"/>
        <polygon fill="#3C358C" stroke="#3C358C" points="455.263 355.674 435.42 321.23 387.498 378.887"/>
        <polygon fill="#4B2873" stroke="#4B2873" points="421.942 62.149 348.186 98.091 371.773 143.393"/>
        <polygon fill="#403083" stroke="#403083" points="426.06 292.027 370.275 262.076 413.331 297.643"/>
        <polygon fill="#3E3287" stroke="#3E3287" points="435.42 321.23 413.331 297.643 374.768 363.911"/>
        <polygon fill="#3D3287" stroke="#3D3287" points="435.42 321.23 374.768 363.911 387.498 378.887"/>
        <polygon fill="#3E3288" stroke="#3E3288" points="435.42 321.23 426.06 292.027 413.331 297.643"/>
        <polygon fill="#4C2771" stroke="#4C2771" points="421.942 62.149 359.418 52.79 348.186 98.091"/>
        <polygon fill="#4E2874" stroke="#4E2874" points="371.773 143.393 348.186 98.091 347.437 102.21"/>
        <polygon fill="#402F81" stroke="#402F81" points="413.331 297.643 327.969 324.974 374.768 363.911"/>
        <polygon fill="#432E7F" stroke="#432E7F" points="413.331 297.643 370.275 262.076 327.969 324.974"/>
        <polygon fill="#3D2E7E" stroke="#3D2E7E" points="387.498 378.887 341.822 368.778 319.732 452.642"/>
        <polygon fill="#482B7A" stroke="#482B7A" points="370.275 262.076 368.029 175.965 314.116 262.45"/>
        <polygon fill="#3E2F81" stroke="#3E2F81" points="387.498 378.887 374.768 363.911 341.822 368.778"/>
        <polygon fill="#412E7E" stroke="#412E7E" points="374.768 363.911 327.969 324.974 341.822 368.778"/>
        <polygon fill="#4C2978" stroke="#4C2978" points="368.029 175.965 317.86 151.629 314.116 262.45"/>
        <polygon fill="#462C7B" stroke="#462C7B" points="370.275 262.076 314.116 262.45 327.969 324.974"/>
        <polygon fill="#4C2977" stroke="#4C2977" points="371.773 143.393 317.86 151.629 368.029 175.965"/>
        <polygon fill="#4E2875" stroke="#4E2875" points="371.773 143.393 347.437 102.21 317.86 151.629"/>
        <polygon fill="#472B7A" stroke="#472B7A" points="327.969 324.974 314.116 262.45 304.382 309.998"/>
        <polygon fill="#502977" stroke="#502977" points="317.86 151.629 298.017 152.753 314.116 262.45"/>
        <polygon fill="#532673" stroke="#532673" points="359.418 52.79 285.662 75.628 348.186 98.091"/>
        <polygon fill="#552672" stroke="#552672" points="359.418 52.79 311.87 17.597 285.662 75.628"/>
        <polygon fill="#522877" stroke="#522877" points="314.116 262.45 298.017 152.753 263.199 163.984"/>
        <polygon fill="#3F2B78" stroke="#3F2B78" points="341.822 368.778 262.45 406.592 319.732 452.642"/>
        <polygon fill="#532775" stroke="#532775" points="347.437 102.21 282.667 113.067 317.86 151.629"/>
        <polygon fill="#532774" stroke="#532774" points="348.186 98.091 285.662 75.628 347.437 102.21"/>
        <polygon fill="#562775" stroke="#562775" points="347.437 102.21 285.662 75.628 282.667 113.067"/>
        <polygon fill="#422B79" stroke="#422B79" points="341.822 368.778 327.969 324.974 262.45 406.592"/>
        <polygon fill="#542877" stroke="#542877" points="314.116 262.45 263.199 163.984 237.366 183.453"/>
        <polygon fill="#552776" stroke="#552776" points="317.86 151.629 282.667 113.067 298.017 152.753"/>
        <polygon fill="#452A78" stroke="#452A78" points="327.969 324.974 304.382 309.998 262.45 406.592"/>
        <polygon fill="#472974" stroke="#472974" points="304.382 309.998 211.533 351.556 262.45 406.592"/>
        <polygon fill="#552877" stroke="#552877" points="314.116 262.45 237.366 183.453 213.03 223.888"/>
        <polygon fill="#5D2574" stroke="#5D2574" points="311.87 17.597 244.105 26.582 285.662 75.628"/>
        <polygon fill="#4E2977" stroke="#4E2977" points="314.116 262.45 213.03 223.888 304.382 309.998"/>
        <polygon fill="#522876" stroke="#522876" points="304.382 309.998 213.03 223.888 179.335 275.179"/>
        <polygon fill="#4E2874" stroke="#4E2874" points="304.382 309.998 179.335 275.179 211.533 351.556"/>
        <polygon fill="#622677" stroke="#622677" points="285.662 75.628 244.105 26.582 235.868 60.277"/>
        <polygon fill="#582777" stroke="#582777" points="298.017 152.753 282.667 113.067 263.199 163.984"/>
        <polygon fill="#472771" stroke="#472771" points="262.45 406.592 211.533 351.556 211.907 381.133"/>
        <polygon fill="#5D2777" stroke="#5D2777" points="285.662 75.628 241.858 105.579 282.667 113.067"/>
        <polygon fill="#5C2777" stroke="#5C2777" points="282.667 113.067 241.858 105.579 263.199 163.984"/>
        <polygon fill="#612677" stroke="#612677" points="285.662 75.628 235.868 60.277 241.858 105.579"/>
        <polygon fill="#602779" stroke="#602779" points="263.199 163.984 241.858 105.579 208.912 149.758"/>
        <polygon fill="#442770" stroke="#442770" points="262.45 406.592 211.907 381.133 233.622 426.435"/>
        <polygon fill="#5D2778" stroke="#5D2778" points="263.199 163.984 208.912 149.758 237.366 183.453"/>
        <polygon fill="#4A2770" stroke="#4A2770" points="211.907 381.133 211.533 351.556 206.665 369.901"/>
        <polygon fill="#67277A" stroke="#67277A" points="241.858 105.579 235.868 60.277 193.187 102.958"/>
        <polygon fill="#66277B" stroke="#66277B" points="241.858 105.579 193.187 102.958 208.912 149.758"/>
        <polygon fill="#45266E" stroke="#45266E" points="233.622 426.435 211.907 381.133 195.808 418.572"/>
        <polygon fill="#6B267B" stroke="#6B267B" points="235.868 60.277 212.281 49.794 193.187 102.958"/>
        <polygon fill="#5E2779" stroke="#5E2779" points="237.366 183.453 208.912 149.758 213.03 223.888"/>
        <polygon fill="#4F2672" stroke="#4F2672" points="211.533 351.556 179.335 275.179 203.67 354.925"/>
        <polygon fill="#552672" stroke="#552672" points="177.837 274.805 139.275 305.88 166.605 349.684"/>
        <polygon fill="#552673" stroke="#552673" points="179.335 275.179 177.837 274.805 166.605 349.684"/>
        <polygon fill="#72277E" stroke="#72277E" points="200.301 46.425 169.226 49.794 193.187 102.958"/>
        <polygon fill="#512671" stroke="#512671" points="203.67 354.925 179.335 275.179 166.605 349.684"/>
        <polygon fill="#69277B" stroke="#69277B" points="208.912 149.758 96.219 186.074 156.871 231.001"/>
        <polygon fill="#4B2671" stroke="#4B2671" points="211.533 351.556 203.67 354.925 206.665 369.901"/>
        <polygon fill="#47266D" stroke="#47266D" points="211.907 381.133 176.339 403.222 195.808 418.572"/>
        <polygon fill="#6E277C" stroke="#6E277C" points="212.281 49.794 200.301 46.425 193.187 102.958"/>
        <polygon fill="#612779" stroke="#612779" points="213.03 223.888 208.912 149.758 156.871 231.001"/>
        <polygon fill="#5C2776" stroke="#5C2776" points="213.03 223.888 156.871 231.001 179.335 275.179"/>
        <polygon fill="#48266F" stroke="#48266F" points="211.907 381.133 206.665 369.901 176.339 403.222"/>
        <polygon fill="#592673" stroke="#592673" points="177.837 274.805 145.639 289.781 139.275 305.88"/>
        <polygon fill="#6E277E" stroke="#6E277E" points="208.912 149.758 193.187 102.958 96.219 186.074"/>
        <polygon fill="#5B2675" stroke="#5B2675" points="179.335 275.179 156.871 231.001 177.837 274.805"/>
        <polygon fill="#4D256F" stroke="#4D256F" points="203.67 354.925 166.605 349.684 159.866 362.039"/>
        <polygon fill="#4C266F" stroke="#4C266F" points="206.665 369.901 203.67 354.925 159.866 362.039"/>
        <polygon fill="#4A256E" stroke="#4A256E" points="206.665 369.901 159.866 362.039 176.339 403.222"/>
        <polygon fill="#792782" stroke="#792782" points="193.187 102.958 72.632 145.639 96.219 186.074"/>
        <polygon fill="#7A2883" stroke="#7A2883" points="193.187 102.958 169.226 49.794 72.632 145.639"/>
        <polygon fill="#6B267B" stroke="#6B267B" points="156.871 231.001 96.219 186.074 104.081 216.025"/>
        <polygon fill="#542570" stroke="#542570" points="166.605 349.684 139.275 305.88 129.915 326.846"/>
        <polygon fill="#4C256D" stroke="#4C256D" points="176.339 403.222 159.866 362.039 142.644 365.783"/>
        <polygon fill="#5C2675" stroke="#5C2675" points="177.837 274.805 156.871 231.001 145.639 289.781"/>
        <polygon fill="#492469" stroke="#492469" points="176.339 403.222 102.584 384.128 132.535 452.642"/>
        <polygon fill="#4C246C" stroke="#4C246C" points="176.339 403.222 142.644 365.783 102.584 384.128"/>
        <polygon fill="#882889" stroke="#882889" points="169.226 49.794 106.702 0 72.632 145.639"/>
        <polygon fill="#4E256E" stroke="#4E256E" points="166.605 349.684 142.644 365.783 159.866 362.039"/>
        <polygon fill="#51256F" stroke="#51256F" points="166.605 349.684 129.915 326.846 142.644 365.783"/>
        <polygon fill="#482367" stroke="#482367" points="132.535 452.642 102.584 384.128 119.057 452.642"/>
        <polygon fill="#622677" stroke="#622677" points="156.871 231.001 105.205 220.144 145.639 289.781"/>
        <polygon fill="#69267A" stroke="#69267A" points="156.871 231.001 104.081 216.025 105.205 220.144"/>
        <polygon fill="#982A92" stroke="#982A92" points="106.702 0 8.237 80.12 72.632 145.639"/>
        <polygon fill="#622575" stroke="#622575" points="145.639 289.781 105.205 220.144 86.111 285.662"/>
        <polygon fill="#4A2267" stroke="#4A2267" points="119.057 452.642 102.584 384.128 83.115 419.321"/>
        <polygon fill="#5B2573" stroke="#5B2573" points="145.639 289.781 86.111 285.662 139.275 305.88"/>
        <polygon fill="#51246D" stroke="#51246D" points="142.644 365.783 129.915 326.846 102.584 384.128"/>
        <polygon fill="#5A2571" stroke="#5A2571" points="139.275 305.88 86.111 285.662 129.915 326.846"/>
        <polygon fill="#672577" stroke="#672577" points="105.205 220.144 69.263 246.726 86.111 285.662"/>
        <polygon fill="#54246D" stroke="#54246D" points="129.915 326.846 70.012 325.348 102.584 384.128"/>
        <polygon fill="#5A2470" stroke="#5A2470" points="129.915 326.846 86.111 285.662 70.012 325.348"/>
        <polygon fill="#5D2470" stroke="#5D2470" points="86.111 285.662 67.391 317.86 70.012 325.348"/>
        <polygon fill="#A72B9A" stroke="#A72B9A" points="106.702 0 0 31.075 8.237 80.12"/>
        <polygon fill="#55236B" stroke="#55236B" points="82.741 390.118 70.012 325.348 45.676 350.807"/>
        <polygon fill="#52236B" stroke="#52236B" points="102.584 384.128 70.012 325.348 82.741 390.118"/>
        <polygon fill="#4D2268" stroke="#4D2268" points="102.584 384.128 82.741 390.118 83.115 419.321"/>
        <polygon fill="#6C267A" stroke="#6C267A" points="105.205 220.144 104.081 216.025 69.263 246.726"/>
        <polygon fill="#6F267B" stroke="#6F267B" points="104.081 216.025 96.219 186.074 69.263 246.726"/>
        <polygon fill="#53226A" stroke="#53226A" points="82.741 390.118 45.676 350.807 43.055 362.413"/>
        <polygon fill="#72267C" stroke="#72267C" points="96.219 186.074 5.99 228.38 69.263 246.726"/>
        <polygon fill="#7B2680" stroke="#7B2680" points="96.219 186.074 0 186.823 5.99 228.38"/>
        <polygon fill="#7F2784" stroke="#7F2784" points="96.219 186.074 72.632 145.639 0 186.823"/>
        <polygon fill="#7B267E" stroke="#7B267E" points="5.99 228.38 0 186.823 0 216.025"/>
        <polygon fill="#6E2579" stroke="#6E2579" points="69.263 246.726 5.99 228.38 53.913 252.341"/>
        <polygon fill="#992A91" stroke="#992A91" points="72.632 145.639 8.237 80.12 0 101.086"/>
        <polygon fill="#862786" stroke="#862786" points="72.632 145.639 0 168.852 0 186.823"/>
        <polygon fill="#4F2267" stroke="#4F2267" points="83.115 419.321 82.741 390.118 29.577 378.887"/>
        <polygon fill="#672576" stroke="#672576" points="86.111 285.662 69.263 246.726 53.913 252.341"/>
        <polygon fill="#622473" stroke="#622473" points="86.111 285.662 53.913 252.341 67.391 317.86"/>
        <polygon fill="#94298E" stroke="#94298E" points="72.632 145.639 0 101.086 0 132.161"/>
        <polygon fill="#4C2165" stroke="#4C2165" points="83.115 419.321 29.577 378.887 55.036 452.642"/>
        <polygon fill="#522268" stroke="#522268" points="82.741 390.118 43.055 362.413 29.577 378.887"/>
        <polygon fill="#652473" stroke="#652473" points="53.913 252.341 0 263.573 42.681 329.841"/>
        <polygon fill="#602471" stroke="#602471" points="67.391 317.86 53.913 252.341 42.681 329.841"/>
        <polygon fill="#59236D" stroke="#59236D" points="70.012 325.348 42.681 329.841 45.676 350.807"/>
        <polygon fill="#8C288A" stroke="#8C288A" points="72.632 145.639 0 132.161 0 168.852"/>
        <polygon fill="#5B236E" stroke="#5B236E" points="70.012 325.348 67.391 317.86 42.681 329.841"/>
        <polygon fill="#4B2063" stroke="#4B2063" points="55.036 452.642 29.577 378.887 0 452.642"/>
        <polygon fill="#6F2578" stroke="#6F2578" points="53.913 252.341 5.99 228.38 0 263.573"/>
        <polygon fill="#552269" stroke="#552269" points="45.676 350.807 29.577 378.887 43.055 362.413"/>
        <polygon fill="#57226A" stroke="#57226A" points="45.676 350.807 42.681 329.841 29.577 378.887"/>
        <polygon fill="#5D236D" stroke="#5D236D" points="42.681 329.841 0 263.573 29.577 378.887"/>
        <polygon fill="#552168" stroke="#552168" points="29.577 378.887 0 263.573 0 452.642"/>
        <polygon fill="#77257C" stroke="#77257C" points="5.99 228.38 0 216.025 0 226.508"/>
        <polygon fill="#722579" stroke="#722579" points="5.99 228.38 0 226.508 0 263.573"/>
        <polygon fill="#A92B9B" stroke="#A92B9B" points="8.237 80.12 0 31.075 0 101.086"/>
      </g>
    </g>
  </g>
</svg>
