<svg xmlns="http://www.w3.org/2000/svg" width="520" height="54" viewBox="0 0 520 54">
  <path fill="#FFF" fill-rule="evenodd" d="M526.548,86.456 L548.508,86.456 C553.644026,86.456 557.735985,87.7039875 560.784,90.2 C563.832015,92.6960125 565.356,95.8639808 565.356,99.704 C565.356,105.416029 562.020033,109.27999 555.348,111.296 C558.756017,111.776002 561.46799,113.191988 563.484,115.544 C565.50001,117.896012 566.508,120.655984 566.508,123.824 C566.508,127.85602 565.032015,131.059988 562.08,133.436 C559.127985,135.812012 555.012026,137 549.732,137 L526.548,137 L526.548,86.456 Z M538.86,95.816 L538.86,106.76 L546.924,106.76 C548.700009,106.76 550.127995,106.304005 551.208,105.392 C552.288005,104.479995 552.828,103.124009 552.828,101.324 C552.828,99.523991 552.288005,98.1560047 551.208,97.22 C550.127995,96.2839953 548.700009,95.816 546.924,95.816 L538.86,95.816 Z M538.86,127.64 L548.148,127.64 C549.828008,127.64 551.219994,127.136005 552.324,126.128 C553.428006,125.119995 553.98,123.728009 553.98,121.952 C553.98,120.175991 553.452005,118.760005 552.396,117.704 C551.339995,116.647995 549.972008,116.12 548.292,116.12 L538.86,116.12 L538.86,127.64 Z M571.076,137 L571.076,86.456 L583.388,86.456 L583.388,137 L571.076,137 Z M590.188,86.456 L602.5,86.456 L602.5,127.64 L617.836,127.64 L617.836,137 L590.188,137 L590.188,86.456 Z M620.676,86.456 L632.988,86.456 L632.988,127.64 L648.324,127.64 L648.324,137 L620.676,137 L620.676,86.456 Z M651.164,86.456 L673.124,86.456 C678.260026,86.456 682.351985,87.7039875 685.4,90.2 C688.448015,92.6960125 689.972,95.8639808 689.972,99.704 C689.972,105.416029 686.636033,109.27999 679.964,111.296 C683.372017,111.776002 686.08399,113.191988 688.1,115.544 C690.11601,117.896012 691.124,120.655984 691.124,123.824 C691.124,127.85602 689.648015,131.059988 686.696,133.436 C683.743985,135.812012 679.628026,137 674.348,137 L651.164,137 L651.164,86.456 Z M663.476,95.816 L663.476,106.76 L671.54,106.76 C673.316009,106.76 674.743995,106.304005 675.824,105.392 C676.904005,104.479995 677.444,103.124009 677.444,101.324 C677.444,99.523991 676.904005,98.1560047 675.824,97.22 C674.743995,96.2839953 673.316009,95.816 671.54,95.816 L663.476,95.816 Z M663.476,127.64 L672.764,127.64 C674.444008,127.64 675.835994,127.136005 676.94,126.128 C678.044006,125.119995 678.596,123.728009 678.596,121.952 C678.596,120.175991 678.068005,118.760005 677.012,117.704 C675.955995,116.647995 674.588008,116.12 672.908,116.12 L663.476,116.12 L663.476,127.64 Z M731.98,111.584 C731.98,107.167978 730.768012,103.640013 728.344,101 C725.919988,98.3599868 722.68002,97.04 718.624,97.04 C714.56798,97.04 711.328012,98.3599868 708.904,101 C706.479988,103.640013 705.268,107.167978 705.268,111.584 C705.268,116.000022 706.479988,119.527987 708.904,122.168 C711.328012,124.808013 714.56798,126.128 718.624,126.128 C722.68002,126.128 725.919988,124.808013 728.344,122.168 C730.768012,119.527987 731.98,116.000022 731.98,111.584 Z M692.74,111.584 C692.74,104.095963 695.247975,97.9160244 700.264,93.044 C705.280025,88.1719756 711.423964,85.736 718.696,85.736 C725.968036,85.736 732.087975,88.1719756 737.056,93.044 C742.024025,97.9160244 744.508,104.095963 744.508,111.584 C744.508,119.072037 742.012025,125.263976 737.02,130.16 C732.027975,135.056024 725.908036,137.504 718.66,137.504 C711.411964,137.504 705.280025,135.056024 700.264,130.16 C695.247975,125.263976 692.74,119.072037 692.74,111.584 Z M780.54,137 L777.732,128.504 L759.588,128.504 L756.78,137 L743.676,137 L761.244,86.312 L776.22,86.312 L793.716,137 L780.54,137 Z M762.684,119.144 L774.636,119.144 L768.66,101.144 L762.684,119.144 Z M808.076,117.344 L808.076,137 L795.764,137 L795.764,86.456 L815.708,86.456 C821.564029,86.456 826.123984,87.9679849 829.388,90.992 C832.652016,94.0160151 834.284,97.6639786 834.284,101.936 C834.284,104.864015 833.396009,107.719986 831.62,110.504 C829.843991,113.288014 826.94002,115.255994 822.908,116.408 L835.292,137 L820.892,137 L809.516,117.344 L808.076,117.344 Z M808.076,95.816 L808.076,107.984 L815.708,107.984 C817.580009,107.984 819.055995,107.432006 820.136,106.328 C821.216005,105.223994 821.756,103.772009 821.756,101.972 C821.756,100.171991 821.204006,98.6960058 820.1,97.544 C818.995994,96.3919942 817.532009,95.816 815.708,95.816 L808.076,95.816 Z M852.172,127.64 L857.644,127.64 C862.348024,127.64 866.043987,126.200014 868.732,123.32 C871.420013,120.439986 872.764,116.576024 872.764,111.728 C872.764,106.879976 871.420013,103.016014 868.732,100.136 C866.043987,97.2559856 862.348024,95.816 857.644,95.816 L852.172,95.816 L852.172,127.64 Z M857.644,86.456 C865.70804,86.456 872.331974,88.7959766 877.516,93.476 C882.700026,98.1560234 885.292,104.227963 885.292,111.692 C885.292,119.156037 882.700026,125.239976 877.516,129.944 C872.331974,134.648024 865.70804,137 857.644,137 L839.86,137 L839.86,86.456 L857.644,86.456 Z M904.076,136.28 L904.076,127.136 C905.372006,125.983994 907.195988,124.40001 909.548,122.384 C911.900012,120.36799 913.723994,118.796006 915.02,117.668 C916.316006,116.539994 917.827991,115.124009 919.556,113.42 C921.284009,111.715991 922.579996,110.264006 923.444,109.064 C925.700011,105.943984 926.828,103.232012 926.828,100.928 C926.828,96.8479796 925.028018,94.808 921.428,94.808 C919.699991,94.808 918.332005,95.4199939 917.324,96.644 C916.315995,97.8680061 915.812,99.6319885 915.812,101.936 L903.932,101.936 C903.932,96.1759712 905.599983,91.8200148 908.936,88.868 C912.272017,85.9159852 916.651973,84.44 922.076,84.44 C927.500027,84.44 931.723985,85.9879845 934.748,89.084 C937.772015,92.1800155 939.284,95.9119782 939.284,100.28 C939.284,103.592017 938.564007,106.495988 937.124,108.992 C936.259996,110.432007 935.516003,111.655995 934.892,112.664 C934.267997,113.672005 933.236007,114.919993 931.796,116.408 C930.355993,117.896007 929.300003,118.975997 928.628,119.648 C927.955997,120.320003 926.720009,121.471992 924.92,123.104 C923.119991,124.736008 921.980002,125.791998 921.5,126.272 L940.22,126.272 L940.22,136.28 L904.076,136.28 Z M980.068,111.584 C980.068,107.167978 978.856012,103.640013 976.432,101 C974.007988,98.3599868 970.76802,97.04 966.712,97.04 C962.65598,97.04 959.416012,98.3599868 956.992,101 C954.567988,103.640013 953.356,107.167978 953.356,111.584 C953.356,116.000022 954.567988,119.527987 956.992,122.168 C959.416012,124.808013 962.65598,126.128 966.712,126.128 C970.76802,126.128 974.007988,124.808013 976.432,122.168 C978.856012,119.527987 980.068,116.000022 980.068,111.584 Z M940.828,111.584 C940.828,104.095963 943.335975,97.9160244 948.352,93.044 C953.368025,88.1719756 959.511964,85.736 966.784,85.736 C974.056036,85.736 980.175975,88.1719756 985.144,93.044 C990.112025,97.9160244 992.596,104.095963 992.596,111.584 C992.596,119.072037 990.100025,125.263976 985.108,130.16 C980.115975,135.056024 973.996036,137.504 966.748,137.504 C959.499964,137.504 953.368025,135.056024 948.352,130.16 C943.335975,125.263976 940.828,119.072037 940.828,111.584 Z M1032.804,111.584 C1032.804,107.167978 1031.59201,103.640013 1029.168,101 C1026.74399,98.3599868 1023.50402,97.04 1019.448,97.04 C1015.39198,97.04 1012.15201,98.3599868 1009.728,101 C1007.30399,103.640013 1006.092,107.167978 1006.092,111.584 C1006.092,116.000022 1007.30399,119.527987 1009.728,122.168 C1012.15201,124.808013 1015.39198,126.128 1019.448,126.128 C1023.50402,126.128 1026.74399,124.808013 1029.168,122.168 C1031.59201,119.527987 1032.804,116.000022 1032.804,111.584 Z M993.564,111.584 C993.564,104.095963 996.071975,97.9160244 1001.088,93.044 C1006.10403,88.1719756 1012.24796,85.736 1019.52,85.736 C1026.79204,85.736 1032.91198,88.1719756 1037.88,93.044 C1042.84802,97.9160244 1045.332,104.095963 1045.332,111.584 C1045.332,119.072037 1042.83602,125.263976 1037.844,130.16 C1032.85198,135.056024 1026.73204,137.504 1019.484,137.504 C1012.23596,137.504 1006.10403,135.056024 1001.088,130.16 C996.071975,125.263976 993.564,119.072037 993.564,111.584 Z" transform="translate(-526 -84)"/>
</svg>
