<?xml version="1.0" encoding="UTF-8"?>
<svg width="360px" height="750px" viewBox="0 0 360 750" version="1.1" xmlns="http://www.w3.org/2000/svg" xmlns:xlink="http://www.w3.org/1999/xlink">
    <!-- Generator: Sketch 50.2 (55047) - http://www.bohemiancoding.com/sketch -->
    <title>bg-bb200-mb</title>
    <desc>Created with Sketch.</desc>
    <defs>
        <rect id="path-1" x="0" y="0" width="360" height="750"></rect>
    </defs>
    <g id="Backgrounds" stroke="none" stroke-width="1" fill="none" fill-rule="evenodd">
        <g id="bb-chart-mb-360-bb200" transform="translate(0.000000, -80.000000)">
            <g id="HEADER" transform="translate(0.000000, 80.000000)">
                <g id="bg-bb200-mb">
                    <mask id="mask-2" fill="white">
                        <use xlink:href="#path-1"></use>
                    </mask>
                    <use id="Mask" fill="#FFFFFF" xlink:href="#path-1"></use>
                    <g id="bb200-bg-mobile" mask="url(#mask-2)" fill-rule="nonzero" stroke-linejoin="round">
                        <g transform="translate(-110.000000, 0.000000)" id="Shape">
                            <polygon stroke="#204047" fill="#204047" points="217.5 0 50.2666667 0 172.55 4.11666667"></polygon>
                            <polygon stroke="#204042" fill="#204042" points="560.666667 753.983333 540.366667 737.2 463.033333 758.733333"></polygon>
                            <polygon stroke="#214350" fill="#214350" points="290 0 217.5 0 239.25 2.21666667"></polygon>
                            <polygon stroke="#214143" fill="#214143" points="540.366667 737.2 520.308333 721.683333 463.033333 758.733333"></polygon>
                            <polygon stroke="#214349" fill="#214349" points="545.2 538.966667 469.316667 559.866667 534.325 629.216667"></polygon>
                            <polygon stroke="#21444B" fill="#21444B" points="545.2 538.966667 517.891667 518.7 469.316667 559.866667"></polygon>
                            <polygon stroke="#224B5B" fill="#224B5B" points="553.658333 289.116667 420.741667 347.7 472.458333 396.466667"></polygon>
                            <polygon stroke="#234C5D" fill="#234C5D" points="553.658333 289.116667 413.975 324.266667 420.741667 347.7"></polygon>
                            <polygon stroke="#234F65" fill="#234F65" points="553.658333 289.116667 478.983333 196.333333 413.975 324.266667"></polygon>
                            <polygon stroke="#265C82" fill="#265C82" points="520.55 68.7166667 457.958333 173.85 478.983333 196.333333"></polygon>
                            <polygon stroke="#214143" fill="#214143" points="520.308333 721.683333 514.991667 719.466667 463.033333 758.733333"></polygon>
                            <polygon stroke="#214348" fill="#214348" points="534.325 629.216667 469.316667 559.866667 523.691667 646.95"></polygon>
                            <polygon stroke="#224A56" fill="#224A56" points="472.458333 396.466667 420.741667 347.7 441.041667 384.116667"></polygon>
                            <polygon stroke="#224549" fill="#224549" points="485.266667 672.916667 469.316667 559.866667 437.175 613.7"></polygon>
                            <polygon stroke="#22464F" fill="#22464F" points="517.891667 518.7 486.233333 440.8 447.325 478.483333"></polygon>
                            <polygon stroke="#27618B" fill="#27618B" points="520.55 68.7166667 447.566667 35.15 457.958333 173.85"></polygon>
                            <polygon stroke="#296CA2" fill="#296CA2" points="520.55 68.7166667 500.975 0 455.783333 27.55"></polygon>
                            <polygon stroke="#214348" fill="#214348" points="523.691667 646.95 469.316667 559.866667 485.266667 672.916667"></polygon>
                            <polygon stroke="#22474E" fill="#22474E" points="517.891667 518.7 447.325 478.483333 444.183333 497.166667"></polygon>
                            <polygon stroke="#276493" fill="#276493" points="520.55 68.7166667 455.783333 27.55 447.566667 35.15"></polygon>
                            <polygon stroke="#22464D" fill="#22464D" points="517.891667 518.7 444.183333 497.166667 469.316667 559.866667"></polygon>
                            <polygon stroke="#214345" fill="#214345" points="514.991667 719.466667 485.266667 672.916667 466.658333 694.766667"></polygon>
                            <polygon stroke="#214345" fill="#214345" points="514.991667 719.466667 466.658333 694.766667 463.033333 758.733333"></polygon>
                            <polygon stroke="#22474D" fill="#22474D" points="469.316667 559.866667 444.183333 497.166667 450.466667 544.983333"></polygon>
                            <polygon stroke="#234F64" fill="#234F64" points="478.983333 196.333333 408.416667 204.25 413.975 324.266667"></polygon>
                            <polygon stroke="#276392" fill="#276392" points="500.975 0 455.541667 0 455.783333 27.55"></polygon>
                            <polygon stroke="#245674" fill="#245674" points="457.958333 173.85 447.566667 35.15 384.975 141.233333"></polygon>
                            <polygon stroke="#224547" fill="#224547" points="485.266667 672.916667 433.55 678.933333 466.658333 694.766667"></polygon>
                            <polygon stroke="#224648" fill="#224648" points="485.266667 672.916667 437.175 613.7 433.55 678.933333"></polygon>
                            <polygon stroke="#224852" fill="#224852" points="486.233333 440.8 472.458333 396.466667 447.325 478.483333"></polygon>
                            <polygon stroke="#224953" fill="#224953" points="472.458333 396.466667 441.041667 384.116667 447.325 478.483333"></polygon>
                            <polygon stroke="#24536D" fill="#24536D" points="478.983333 196.333333 457.958333 173.85 408.416667 204.25"></polygon>
                            <polygon stroke="#224546" fill="#224546" points="466.658333 694.766667 418.083333 760 463.033333 758.733333"></polygon>
                            <polygon stroke="#224647" fill="#224647" points="466.658333 694.766667 433.55 678.933333 418.083333 760"></polygon>
                            <polygon stroke="#22474B" fill="#22474B" points="469.316667 559.866667 450.466667 544.983333 437.175 613.7"></polygon>
                            <polygon stroke="#224A52" fill="#224A52" points="447.325 478.483333 441.041667 384.116667 369.508333 441.116667"></polygon>
                            <polygon stroke="#24526C" fill="#24526C" points="447.566667 35.15 369.508333 122.55 384.975 141.233333"></polygon>
                            <polygon stroke="#265E87" fill="#265E87" points="455.783333 27.55 455.541667 0 447.566667 35.15"></polygon>
                            <polygon stroke="#245169" fill="#245169" points="457.958333 173.85 384.975 141.233333 408.416667 204.25"></polygon>
                            <polygon stroke="#25577A" fill="#25577A" points="455.541667 0 386.425 0 447.566667 35.15"></polygon>
                            <polygon stroke="#24526F" fill="#24526F" points="447.566667 35.15 386.425 0 369.508333 122.55"></polygon>
                            <polygon stroke="#22494D" fill="#22494D" points="450.466667 544.983333 375.55 528.516667 437.175 613.7"></polygon>
                            <polygon stroke="#22494E" fill="#22494E" points="450.466667 544.983333 444.183333 497.166667 378.45 521.233333"></polygon>
                            <polygon stroke="#234A4E" fill="#234A4E" points="450.466667 544.983333 378.45 521.233333 375.55 528.516667"></polygon>
                            <polygon stroke="#224950" fill="#224950" points="447.325 478.483333 369.508333 441.116667 444.183333 497.166667"></polygon>
                            <polygon stroke="#234D5F" fill="#234D5F" points="413.975 324.266667 408.416667 204.25 377.483333 210.583333"></polygon>
                            <polygon stroke="#234B55" fill="#234B55" points="441.041667 384.116667 415.183333 354.033333 362.983333 389.5"></polygon>
                            <polygon stroke="#234B54" fill="#234B54" points="441.041667 384.116667 362.983333 389.5 369.508333 441.116667"></polygon>
                            <polygon stroke="#234B57" fill="#234B57" points="441.041667 384.116667 420.741667 347.7 415.183333 354.033333"></polygon>
                            <polygon stroke="#234A50" fill="#234A50" points="444.183333 497.166667 369.508333 441.116667 378.45 521.233333"></polygon>
                            <polygon stroke="#234949" fill="#234949" points="433.55 678.933333 361.05 722 418.083333 760"></polygon>
                            <polygon stroke="#234A4B" fill="#234A4B" points="437.175 613.7 336.158333 660.883333 433.55 678.933333"></polygon>
                            <polygon stroke="#234C5B" fill="#234C5B" points="413.975 324.266667 377.483333 210.583333 343.891667 286.266667"></polygon>
                            <polygon stroke="#234B4E" fill="#234B4E" points="437.175 613.7 375.55 528.516667 340.025 548.15"></polygon>
                            <polygon stroke="#244D4E" fill="#244D4E" points="437.175 613.7 340.025 548.15 336.158333 660.883333"></polygon>
                            <polygon stroke="#234C4B" fill="#234C4B" points="433.55 678.933333 336.158333 660.883333 361.05 722"></polygon>
                            <polygon stroke="#234C53" fill="#234C53" points="369.508333 441.116667 362.983333 389.5 362.016667 427.183333"></polygon>
                            <polygon stroke="#234E65" fill="#234E65" points="386.425 0 353.558333 116.85 369.508333 122.55"></polygon>
                            <polygon stroke="#234C58" fill="#234C58" points="413.975 324.266667 343.891667 286.266667 368.783333 340.416667"></polygon>
                            <polygon stroke="#234B56" fill="#234B56" points="415.183333 354.033333 400.925 342.633333 362.983333 389.5"></polygon>
                            <polygon stroke="#234B4A" fill="#234B4A" points="418.083333 760 361.05 722 365.641667 760"></polygon>
                            <polygon stroke="#234B58" fill="#234B58" points="420.741667 347.7 400.925 342.633333 415.183333 354.033333"></polygon>
                            <polygon stroke="#234B58" fill="#234B58" points="420.741667 347.7 413.975 324.266667 400.925 342.633333"></polygon>
                            <polygon stroke="#234F63" fill="#234F63" points="408.416667 204.25 384.975 141.233333 377.483333 210.583333"></polygon>
                            <polygon stroke="#234B58" fill="#234B58" points="413.975 324.266667 368.783333 340.416667 400.925 342.633333"></polygon>
                            <polygon stroke="#234D63" fill="#234D63" points="386.425 0 344.616667 0 353.558333 116.85"></polygon>
                            <polygon stroke="#234B56" fill="#234B56" points="400.925 342.633333 368.783333 340.416667 362.983333 389.5"></polygon>
                            <polygon stroke="#255150" fill="#255150" points="340.025 548.15 314.408333 573.483333 336.158333 660.883333"></polygon>
                            <polygon stroke="#224A5D" fill="#224A5D" points="353.558333 116.85 344.616667 0 300.391667 49.4"></polygon>
                            <polygon stroke="#234C55" fill="#234C55" points="368.783333 340.416667 355.733333 355.933333 362.983333 389.5"></polygon>
                            <polygon stroke="#234E62" fill="#234E62" points="384.975 141.233333 363.95 135.85 377.483333 210.583333"></polygon>
                            <polygon stroke="#234D50" fill="#234D50" points="378.45 521.233333 369.508333 441.116667 340.025 548.15"></polygon>
                            <polygon stroke="#234E63" fill="#234E63" points="384.975 141.233333 369.508333 122.55 363.95 135.85"></polygon>
                            <polygon stroke="#244F51" fill="#244F51" points="369.508333 441.116667 306.433333 533.9 340.025 548.15"></polygon>
                            <polygon stroke="#234D5F" fill="#234D5F" points="377.483333 210.583333 363.95 135.85 339.3 129.833333"></polygon>
                            <polygon stroke="#234C5C" fill="#234C5C" points="377.483333 210.583333 339.3 129.833333 301.116667 157.7"></polygon>
                            <polygon stroke="#234D50" fill="#234D50" points="378.45 521.233333 340.025 548.15 375.55 528.516667"></polygon>
                            <polygon stroke="#234C5A" fill="#234C5A" points="377.483333 210.583333 301.116667 157.7 343.891667 286.266667"></polygon>
                            <polygon stroke="#234B57" fill="#234B57" points="343.891667 286.266667 301.116667 157.7 304.016667 294.5"></polygon>
                            <polygon stroke="#244F52" fill="#244F52" points="362.016667 427.183333 301.358333 399.316667 306.433333 533.9"></polygon>
                            <polygon stroke="#234C56" fill="#234C56" points="368.783333 340.416667 343.891667 286.266667 355.733333 355.933333"></polygon>
                            <polygon stroke="#234D61" fill="#234D61" points="369.508333 122.55 353.558333 116.85 363.95 135.85"></polygon>
                            <polygon stroke="#244D52" fill="#244D52" points="369.508333 441.116667 362.016667 427.183333 306.433333 533.9"></polygon>
                            <polygon stroke="#234C56" fill="#234C56" points="355.733333 355.933333 343.891667 286.266667 312.233333 313.183333"></polygon>
                            <polygon stroke="#244E4C" fill="#244E4C" points="365.641667 760 361.05 722 329.15 760"></polygon>
                            <polygon stroke="#255153" fill="#255153" points="306.433333 533.9 301.358333 399.316667 265.833333 488.933333"></polygon>
                            <polygon stroke="#224B5D" fill="#224B5D" points="353.558333 116.85 300.391667 49.4 346.791667 123.5"></polygon>
                            <polygon stroke="#234D53" fill="#234D53" points="362.983333 389.5 301.358333 399.316667 362.016667 427.183333"></polygon>
                            <polygon stroke="#234C55" fill="#234C55" points="355.733333 355.933333 312.233333 313.183333 309.816667 325.216667"></polygon>
                            <polygon stroke="#25514E" fill="#25514E" points="361.05 722 336.158333 660.883333 303.291667 718.833333"></polygon>
                            <polygon stroke="#234C5F" fill="#234C5F" points="363.95 135.85 346.791667 123.5 339.3 129.833333"></polygon>
                            <polygon stroke="#234D60" fill="#234D60" points="363.95 135.85 353.558333 116.85 346.791667 123.5"></polygon>
                            <polygon stroke="#234C54" fill="#234C54" points="362.983333 389.5 355.733333 355.933333 301.358333 399.316667"></polygon>
                            <polygon stroke="#22485A" fill="#22485A" points="344.616667 0 316.1 0 300.391667 49.4"></polygon>
                            <polygon stroke="#25514E" fill="#25514E" points="361.05 722 303.291667 718.833333 329.15 760"></polygon>
                            <polygon stroke="#255351" fill="#255351" points="336.158333 660.883333 314.408333 573.483333 307.883333 660.566667"></polygon>
                            <polygon stroke="#224A5C" fill="#224A5C" points="346.791667 123.5 300.391667 49.4 339.3 129.833333"></polygon>
                            <polygon stroke="#234D54" fill="#234D54" points="355.733333 355.933333 309.816667 325.216667 301.358333 399.316667"></polygon>
                            <polygon stroke="#234B55" fill="#234B55" points="304.016667 294.5 301.116667 157.7 258.341667 261.883333"></polygon>
                            <polygon stroke="#255450" fill="#255450" points="336.158333 660.883333 307.883333 660.566667 303.291667 718.833333"></polygon>
                            <polygon stroke="#224959" fill="#224959" points="339.3 129.833333 300.391667 49.4 289.516667 56.05"></polygon>
                            <polygon stroke="#224958" fill="#224958" points="339.3 129.833333 289.516667 56.05 281.3 146.616667"></polygon>
                            <polygon stroke="#234C55" fill="#234C55" points="343.891667 286.266667 304.016667 294.5 312.233333 313.183333"></polygon>
                            <polygon stroke="#224A58" fill="#224A58" points="339.3 129.833333 281.3 146.616667 301.116667 157.7"></polygon>
                            <polygon stroke="#255151" fill="#255151" points="340.025 548.15 306.433333 533.9 314.408333 573.483333"></polygon>
                            <polygon stroke="#224A53" fill="#224A53" points="301.116667 157.7 242.391667 210.9 258.341667 261.883333"></polygon>
                            <polygon stroke="#265552" fill="#265552" points="314.408333 573.483333 275.741667 650.75 307.883333 660.566667"></polygon>
                            <polygon stroke="#265550" fill="#265550" points="329.15 760 303.291667 718.833333 290 760"></polygon>
                            <polygon stroke="#265853" fill="#265853" points="307.883333 660.566667 261.483333 676.716667 303.291667 718.833333"></polygon>
                            <polygon stroke="#234D53" fill="#234D53" points="309.816667 325.216667 264.866667 310.016667 301.358333 399.316667"></polygon>
                            <polygon stroke="#255453" fill="#255453" points="314.408333 573.483333 306.433333 533.9 268.975 548.15"></polygon>
                            <polygon stroke="#265754" fill="#265754" points="314.408333 573.483333 256.65 612.75 275.741667 650.75"></polygon>
                            <polygon stroke="#214757" fill="#214757" points="316.1 0 290 0 300.391667 49.4"></polygon>
                            <polygon stroke="#224953" fill="#224953" points="301.116667 157.7 252.541667 160.866667 242.391667 210.9"></polygon>
                            <polygon stroke="#265754" fill="#265754" points="314.408333 573.483333 268.975 548.15 256.65 612.75"></polygon>
                            <polygon stroke="#224754" fill="#224754" points="289.516667 56.05 255.925 61.75 281.3 146.616667"></polygon>
                            <polygon stroke="#224955" fill="#224955" points="301.116667 157.7 281.3 146.616667 252.541667 160.866667"></polygon>
                            <polygon stroke="#275954" fill="#275954" points="307.883333 660.566667 275.741667 650.75 261.483333 676.716667"></polygon>
                            <polygon stroke="#234C54" fill="#234C54" points="312.233333 313.183333 304.016667 294.5 309.816667 325.216667"></polygon>
                            <polygon stroke="#234C54" fill="#234C54" points="309.816667 325.216667 304.016667 294.5 264.866667 310.016667"></polygon>
                            <polygon stroke="#275A55" fill="#275A55" points="303.291667 718.833333 261.483333 676.716667 263.416667 719.466667"></polygon>
                            <polygon stroke="#255454" fill="#255454" points="306.433333 533.9 265.833333 488.933333 268.975 548.15"></polygon>
                            <polygon stroke="#224756" fill="#224756" points="300.391667 49.4 290 0 289.516667 56.05"></polygon>
                            <polygon stroke="#275A54" fill="#275A54" points="290 760 263.416667 719.466667 276.466667 760"></polygon>
                            <polygon stroke="#275953" fill="#275953" points="303.291667 718.833333 263.416667 719.466667 290 760"></polygon>
                            <polygon stroke="#234C53" fill="#234C53" points="304.016667 294.5 258.341667 261.883333 264.866667 310.016667"></polygon>
                            <polygon stroke="#255354" fill="#255354" points="301.358333 399.316667 203.725 465.5 265.833333 488.933333"></polygon>
                            <polygon stroke="#224753" fill="#224753" points="281.3 146.616667 255.925 61.75 240.7 133.95"></polygon>
                            <polygon stroke="#245053" fill="#245053" points="301.358333 399.316667 264.866667 310.016667 169.166667 387.916667"></polygon>
                            <polygon stroke="#255454" fill="#255454" points="301.358333 399.316667 169.166667 387.916667 203.725 465.5"></polygon>
                            <polygon stroke="#265855" fill="#265855" points="203.725 465.5 169.166667 387.916667 185.6 447.133333"></polygon>
                            <polygon stroke="#214654" fill="#214654" points="290 0 255.925 61.75 289.516667 56.05"></polygon>
                            <polygon stroke="#214552" fill="#214552" points="290 0 239.008333 4.75 255.925 61.75"></polygon>
                            <polygon stroke="#214450" fill="#214450" points="290 0 239.25 2.21666667 239.008333 4.75"></polygon>
                            <polygon stroke="#285E57" fill="#285E57" points="263.416667 719.466667 261.483333 676.716667 253.266667 708.066667"></polygon>
                            <polygon stroke="#244F52" fill="#244F52" points="264.866667 310.016667 227.65 291.016667 169.166667 387.916667"></polygon>
                            <polygon stroke="#265755" fill="#265755" points="268.975 548.15 265.833333 488.933333 234.9 532"></polygon>
                            <polygon stroke="#224853" fill="#224853" points="281.3 146.616667 240.7 133.95 252.541667 160.866667"></polygon>
                            <polygon stroke="#275C57" fill="#275C57" points="275.741667 650.75 256.65 612.75 241.183333 622.883333"></polygon>
                            <polygon stroke="#296259" fill="#296259" points="276.466667 760 263.416667 719.466667 185.841667 760"></polygon>
                            <polygon stroke="#285D57" fill="#285D57" points="275.741667 650.75 241.183333 622.883333 261.483333 676.716667"></polygon>
                            <polygon stroke="#21444F" fill="#21444F" points="255.925 61.75 239.008333 4.75 224.266667 42.1166667"></polygon>
                            <polygon stroke="#286059" fill="#286059" points="261.483333 676.716667 241.183333 622.883333 227.891667 652.333333"></polygon>
                            <polygon stroke="#29635A" fill="#29635A" points="263.416667 719.466667 253.266667 708.066667 191.158333 730.233333"></polygon>
                            <polygon stroke="#2B6A5F" fill="#2B6A5F" points="263.416667 719.466667 191.158333 730.233333 185.841667 760"></polygon>
                            <polygon stroke="#234C52" fill="#234C52" points="264.866667 310.016667 258.341667 261.883333 227.65 291.016667"></polygon>
                            <polygon stroke="#275A56" fill="#275A56" points="268.975 548.15 234.9 532 256.65 612.75"></polygon>
                            <polygon stroke="#214550" fill="#214550" points="255.925 61.75 218.466667 55.4166667 240.7 133.95"></polygon>
                            <polygon stroke="#285D58" fill="#285D58" points="256.65 612.75 234.9 532 241.183333 622.883333"></polygon>
                            <polygon stroke="#265856" fill="#265856" points="265.833333 488.933333 203.725 465.5 234.9 532"></polygon>
                            <polygon stroke="#29615A" fill="#29615A" points="261.483333 676.716667 227.891667 652.333333 226.925 658.35"></polygon>
                            <polygon stroke="#234A52" fill="#234A52" points="258.341667 261.883333 242.391667 210.9 223.783333 221.666667"></polygon>
                            <polygon stroke="#296159" fill="#296159" points="261.483333 676.716667 221.608333 682.1 253.266667 708.066667"></polygon>
                            <polygon stroke="#29625A" fill="#29625A" points="261.483333 676.716667 226.925 658.35 221.608333 682.1"></polygon>
                            <polygon stroke="#29605A" fill="#29605A" points="241.183333 622.883333 234.9 532 184.15 588.366667"></polygon>
                            <polygon stroke="#224751" fill="#224751" points="252.541667 160.866667 240.7 133.95 234.9 147.883333"></polygon>
                            <polygon stroke="#234B51" fill="#234B51" points="258.341667 261.883333 223.783333 221.666667 227.65 291.016667"></polygon>
                            <polygon stroke="#224951" fill="#224951" points="252.541667 160.866667 210.733333 196.65 242.391667 210.9"></polygon>
                            <polygon stroke="#224851" fill="#224851" points="252.541667 160.866667 234.9 147.883333 210.733333 196.65"></polygon>
                            <polygon stroke="#21444F" fill="#21444F" points="255.925 61.75 224.266667 42.1166667 218.466667 55.4166667"></polygon>
                            <polygon stroke="#21454E" fill="#21454E" points="240.7 133.95 218.466667 55.4166667 199.858333 64.6"></polygon>
                            <polygon stroke="#2A675D" fill="#2A675D" points="253.266667 708.066667 221.608333 682.1 191.158333 730.233333"></polygon>
                            <polygon stroke="#255152" fill="#255152" points="227.65 291.016667 163.608333 381.9 169.166667 387.916667"></polygon>
                            <polygon stroke="#234B50" fill="#234B50" points="227.65 291.016667 223.783333 221.666667 184.633333 262.833333"></polygon>
                            <polygon stroke="#21434E" fill="#21434E" points="239.008333 4.75 217.5 0 224.266667 42.1166667"></polygon>
                            <polygon stroke="#21454E" fill="#21454E" points="240.7 133.95 199.858333 64.6 193.816667 70.9333333"></polygon>
                            <polygon stroke="#22464E" fill="#22464E" points="240.7 133.95 193.816667 70.9333333 198.408333 158.333333"></polygon>
                            <polygon stroke="#224950" fill="#224950" points="242.391667 210.9 210.733333 196.65 223.783333 221.666667"></polygon>
                            <polygon stroke="#22484F" fill="#22484F" points="234.9 147.883333 198.408333 158.333333 210.733333 196.65"></polygon>
                            <polygon stroke="#224750" fill="#224750" points="240.7 133.95 198.408333 158.333333 234.9 147.883333"></polygon>
                            <polygon stroke="#29645C" fill="#29645C" points="241.183333 622.883333 204.691667 658.033333 227.891667 652.333333"></polygon>
                            <polygon stroke="#2A665D" fill="#2A665D" points="241.183333 622.883333 184.15 588.366667 204.691667 658.033333"></polygon>
                            <polygon stroke="#21424D" fill="#21424D" points="224.266667 42.1166667 217.5 0 207.833333 12.0333333"></polygon>
                            <polygon stroke="#21434E" fill="#21434E" points="239.25 2.21666667 217.5 0 239.008333 4.75"></polygon>
                            <polygon stroke="#244E51" fill="#244E51" points="227.65 291.016667 184.633333 262.833333 163.608333 381.9"></polygon>
                            <polygon stroke="#29645C" fill="#29645C" points="234.9 532 155.15 551.95 184.15 588.366667"></polygon>
                            <polygon stroke="#285D58" fill="#285D58" points="234.9 532 203.725 465.5 154.183333 503.5"></polygon>
                            <polygon stroke="#29625C" fill="#29625C" points="234.9 532 154.183333 503.5 155.15 551.95"></polygon>
                            <polygon stroke="#21454C" fill="#21454C" points="198.408333 158.333333 193.816667 70.9333333 167.233333 121.283333"></polygon>
                            <polygon stroke="#21424C" fill="#21424C" points="224.266667 42.1166667 207.833333 12.0333333 205.9 14.8833333"></polygon>
                            <polygon stroke="#2A675D" fill="#2A675D" points="226.925 658.35 204.691667 658.033333 221.608333 682.1"></polygon>
                            <polygon stroke="#2A665D" fill="#2A665D" points="227.891667 652.333333 204.691667 658.033333 226.925 658.35"></polygon>
                            <polygon stroke="#2C6F62" fill="#2C6F62" points="221.608333 682.1 177.625 710.6 191.158333 730.233333"></polygon>
                            <polygon stroke="#234B4F" fill="#234B4F" points="223.783333 221.666667 177.141667 253.966667 184.633333 262.833333"></polygon>
                            <polygon stroke="#21434D" fill="#21434D" points="224.266667 42.1166667 205.9 14.8833333 218.466667 55.4166667"></polygon>
                            <polygon stroke="#234A4F" fill="#234A4F" points="223.783333 221.666667 210.733333 196.65 177.141667 253.966667"></polygon>
                            <polygon stroke="#20414B" fill="#20414B" points="217.5 0 172.55 4.11666667 207.833333 12.0333333"></polygon>
                            <polygon stroke="#21424C" fill="#21424C" points="218.466667 55.4166667 205.9 14.8833333 193.575 18.3666667"></polygon>
                            <polygon stroke="#21434C" fill="#21434C" points="218.466667 55.4166667 193.575 18.3666667 199.858333 64.6"></polygon>
                            <polygon stroke="#2C6C61" fill="#2C6C61" points="221.608333 682.1 204.691667 658.033333 177.625 710.6"></polygon>
                            <polygon stroke="#255151" fill="#255151" points="184.633333 262.833333 137.266667 359.1 163.608333 381.9"></polygon>
                            <polygon stroke="#2D7265" fill="#2D7265" points="204.691667 658.033333 169.891667 693.5 177.625 710.6"></polygon>
                            <polygon stroke="#20414A" fill="#20414A" points="207.833333 12.0333333 172.55 4.11666667 193.575 18.3666667"></polygon>
                            <polygon stroke="#244F50" fill="#244F50" points="184.633333 262.833333 131.466667 288.8 137.266667 359.1"></polygon>
                            <polygon stroke="#21444B" fill="#21444B" points="193.816667 70.9333333 162.4 105.133333 167.233333 121.283333"></polygon>
                            <polygon stroke="#22484E" fill="#22484E" points="210.733333 196.65 198.408333 158.333333 149.108333 193.483333"></polygon>
                            <polygon stroke="#23494E" fill="#23494E" points="210.733333 196.65 149.108333 193.483333 177.141667 253.966667"></polygon>
                            <polygon stroke="#2C6E63" fill="#2C6E63" points="204.691667 658.033333 184.15 588.366667 136.058333 604.2"></polygon>
                            <polygon stroke="#21424B" fill="#21424B" points="207.833333 12.0333333 193.575 18.3666667 205.9 14.8833333"></polygon>
                            <polygon stroke="#275C58" fill="#275C58" points="203.725 465.5 185.6 447.133333 154.183333 503.5"></polygon>
                            <polygon stroke="#2D7466" fill="#2D7466" points="204.691667 658.033333 136.058333 604.2 169.891667 693.5"></polygon>
                            <polygon stroke="#21434C" fill="#21434C" points="199.858333 64.6 193.575 18.3666667 193.816667 70.9333333"></polygon>
                            <polygon stroke="#21424A" fill="#21424A" points="193.816667 70.9333333 193.575 18.3666667 172.55 4.11666667"></polygon>
                            <polygon stroke="#22474C" fill="#22474C" points="198.408333 158.333333 167.233333 121.283333 149.108333 193.483333"></polygon>
                            <polygon stroke="#22464B" fill="#22464B" points="167.233333 121.283333 139.2 140.6 149.108333 193.483333"></polygon>
                            <polygon stroke="#2E7466" fill="#2E7466" points="191.158333 730.233333 177.625 710.6 181.008333 728.016667"></polygon>
                            <polygon stroke="#2D7365" fill="#2D7365" points="191.158333 730.233333 181.008333 728.016667 185.841667 760"></polygon>
                            <polygon stroke="#21434A" fill="#21434A" points="193.816667 70.9333333 172.55 4.11666667 162.4 105.133333"></polygon>
                            <polygon stroke="#214248" fill="#214248" points="172.55 4.11666667 105.366667 65.8666667 162.4 105.133333"></polygon>
                            <polygon stroke="#234C4F" fill="#234C4F" points="184.633333 262.833333 177.141667 253.966667 131.466667 288.8"></polygon>
                            <polygon stroke="#275956" fill="#275956" points="185.6 447.133333 169.166667 387.916667 115.516667 445.233333"></polygon>
                            <polygon stroke="#285E59" fill="#285E59" points="185.6 447.133333 115.516667 445.233333 154.183333 503.5"></polygon>
                            <polygon stroke="#2F7869" fill="#2F7869" points="185.841667 760 181.008333 728.016667 151.041667 715.666667"></polygon>
                            <polygon stroke="#318270" fill="#318270" points="185.841667 760 151.041667 715.666667 116 760"></polygon>
                            <polygon stroke="#265855" fill="#265855" points="169.166667 387.916667 138.233333 381.583333 115.516667 445.233333"></polygon>
                            <polygon stroke="#2C6E63" fill="#2C6E63" points="184.15 588.366667 155.15 551.95 136.058333 604.2"></polygon>
                            <polygon stroke="#318170" fill="#318170" points="169.891667 693.5 136.058333 604.2 101.983333 659.616667"></polygon>
                            <polygon stroke="#234A4D" fill="#234A4D" points="177.141667 253.966667 149.108333 193.483333 124.941667 225.783333"></polygon>
                            <polygon stroke="#2F796A" fill="#2F796A" points="181.008333 728.016667 177.625 710.6 151.041667 715.666667"></polygon>
                            <polygon stroke="#2F7A6A" fill="#2F7A6A" points="177.625 710.6 169.891667 693.5 151.041667 715.666667"></polygon>
                            <polygon stroke="#234C4E" fill="#234C4E" points="177.141667 253.966667 124.941667 225.783333 131.466667 288.8"></polygon>
                            <polygon stroke="#265554" fill="#265554" points="169.166667 387.916667 163.608333 381.9 138.233333 381.583333"></polygon>
                            <polygon stroke="#328472" fill="#328472" points="169.891667 693.5 101.983333 659.616667 151.041667 715.666667"></polygon>
                            <polygon stroke="#204045" fill="#204045" points="172.55 4.11666667 50.2666667 0 105.366667 65.8666667"></polygon>
                            <polygon stroke="#21454B" fill="#21454B" points="167.233333 121.283333 162.4 105.133333 139.2 140.6"></polygon>
                            <polygon stroke="#2D7165" fill="#2D7165" points="155.15 551.95 125.666667 563.666667 136.058333 604.2"></polygon>
                            <polygon stroke="#265553" fill="#265553" points="163.608333 381.9 137.266667 359.1 138.233333 381.583333"></polygon>
                            <polygon stroke="#214449" fill="#214449" points="162.4 105.133333 105.366667 65.8666667 139.2 140.6"></polygon>
                            <polygon stroke="#2B6A60" fill="#2B6A60" points="155.15 551.95 154.183333 503.5 125.666667 563.666667"></polygon>
                            <polygon stroke="#22474B" fill="#22474B" points="149.108333 193.483333 139.2 140.6 117.691667 203.933333"></polygon>
                            <polygon stroke="#2B6C62" fill="#2B6C62" points="154.183333 503.5 67.9083333 498.75 125.666667 563.666667"></polygon>
                            <polygon stroke="#2A655D" fill="#2A655D" points="154.183333 503.5 115.516667 445.233333 67.9083333 498.75"></polygon>
                            <polygon stroke="#318371" fill="#318371" points="136.058333 604.2 107.058333 608 101.983333 659.616667"></polygon>
                            <polygon stroke="#22494C" fill="#22494C" points="149.108333 193.483333 117.691667 203.933333 124.941667 225.783333"></polygon>
                            <polygon stroke="#36967E" fill="#36967E" points="151.041667 715.666667 82.8916667 716.3 116 760"></polygon>
                            <polygon stroke="#36957E" fill="#36957E" points="151.041667 715.666667 101.983333 659.616667 82.8916667 716.3"></polygon>
                            <polygon stroke="#214448" fill="#214448" points="139.2 140.6 105.366667 65.8666667 93.525 143.766667"></polygon>
                            <polygon stroke="#22474A" fill="#22474A" points="117.691667 203.933333 93.525 143.766667 110.2 203.616667"></polygon>
                            <polygon stroke="#2F796B" fill="#2F796B" points="136.058333 604.2 125.666667 563.666667 107.058333 608"></polygon>
                            <polygon stroke="#255150" fill="#255150" points="137.266667 359.1 131.466667 288.8 84.825 334.083333"></polygon>
                            <polygon stroke="#275955" fill="#275955" points="138.233333 381.583333 74.675 363.216667 115.516667 445.233333"></polygon>
                            <polygon stroke="#22464A" fill="#22464A" points="139.2 140.6 93.525 143.766667 117.691667 203.933333"></polygon>
                            <polygon stroke="#265553" fill="#265553" points="138.233333 381.583333 137.266667 359.1 74.675 363.216667"></polygon>
                            <polygon stroke="#255351" fill="#255351" points="137.266667 359.1 84.825 334.083333 81.2 339.15"></polygon>
                            <polygon stroke="#265552" fill="#265552" points="137.266667 359.1 81.2 339.15 74.675 363.216667"></polygon>
                            <polygon stroke="#244D4D" fill="#244D4D" points="131.466667 288.8 124.941667 225.783333 71.2916667 298.616667"></polygon>
                            <polygon stroke="#234B4C" fill="#234B4C" points="124.941667 225.783333 88.6916667 210.266667 71.2916667 298.616667"></polygon>
                            <polygon stroke="#24504F" fill="#24504F" points="131.466667 288.8 71.2916667 298.616667 84.825 334.083333"></polygon>
                            <polygon stroke="#23494B" fill="#23494B" points="124.941667 225.783333 117.691667 203.933333 110.2 203.616667"></polygon>
                            <polygon stroke="#307D6D" fill="#307D6D" points="125.666667 563.666667 55.3416667 558.283333 107.058333 608"></polygon>
                            <polygon stroke="#2E7668" fill="#2E7668" points="125.666667 563.666667 67.9083333 498.75 55.3416667 558.283333"></polygon>
                            <polygon stroke="#23494B" fill="#23494B" points="124.941667 225.783333 110.2 203.616667 88.6916667 210.266667"></polygon>
                            <polygon stroke="#22474A" fill="#22474A" points="110.2 203.616667 93.525 143.766667 88.6916667 210.266667"></polygon>
                            <polygon stroke="#275B56" fill="#275B56" points="115.516667 445.233333 74.675 363.216667 44.225 404.7"></polygon>
                            <polygon stroke="#286059" fill="#286059" points="115.516667 445.233333 44.225 404.7 50.025 443.333333"></polygon>
                            <polygon stroke="#40BF9B" fill="#40BF9B" points="116 760 55.5833333 723.9 26.3416667 760"></polygon>
                            <polygon stroke="#2A655C" fill="#2A655C" points="115.516667 445.233333 50.025 443.333333 67.9083333 498.75"></polygon>
                            <polygon stroke="#3CAE8F" fill="#3CAE8F" points="116 760 82.8916667 716.3 55.5833333 723.9"></polygon>
                        </g>
                    </g>
                </g>
            </g>
        </g>
    </g>
</svg>