<svg xmlns="http://www.w3.org/2000/svg" width="438" height="52" viewBox="0 0 438 52">
  <path fill="#FFF" fill-rule="evenodd" d="M543,96.08 L543,86.72 L582.888,86.72 L582.888,96.08 L569.064,96.08 L569.064,137.264 L556.752,137.264 L556.752,96.08 L543,96.08 Z M618.056,86.72 L630.368,86.72 L630.368,137.264 L618.056,137.264 L618.056,116.312 L598.544,116.312 L598.544,137.264 L586.232,137.264 L586.232,86.72 L598.544,86.72 L598.544,106.952 L618.056,106.952 L618.056,86.72 Z M667.768,86.576 L667.768,95.936 L649.48,95.936 L649.48,106.808 L665.608,106.808 L665.608,116.168 L649.48,116.168 L649.48,127.904 L667.768,127.904 L667.768,137.264 L637.168,137.264 L637.168,86.576 L667.768,86.576 Z M723.776,86.72 L736.088,86.72 L736.088,137.264 L723.776,137.264 L723.776,116.312 L704.264,116.312 L704.264,137.264 L691.952,137.264 L691.952,86.72 L704.264,86.72 L704.264,106.952 L723.776,106.952 L723.776,86.72 Z M779.176,111.848 C779.176,107.431978 777.964012,103.904013 775.54,101.264 C773.115988,98.6239868 769.87602,97.304 765.82,97.304 C761.76398,97.304 758.524012,98.6239868 756.1,101.264 C753.675988,103.904013 752.464,107.431978 752.464,111.848 C752.464,116.264022 753.675988,119.791987 756.1,122.432 C758.524012,125.072013 761.76398,126.392 765.82,126.392 C769.87602,126.392 773.115988,125.072013 775.54,122.432 C777.964012,119.791987 779.176,116.264022 779.176,111.848 Z M739.936,111.848 C739.936,104.359963 742.443975,98.1800244 747.46,93.308 C752.476025,88.4359756 758.619964,86 765.892,86 C773.164036,86 779.283975,88.4359756 784.252,93.308 C789.220025,98.1800244 791.704,104.359963 791.704,111.848 C791.704,119.336037 789.208025,125.527976 784.216,130.424 C779.223975,135.320024 773.104036,137.768 765.856,137.768 C758.607964,137.768 752.476025,135.320024 747.46,130.424 C742.443975,125.527976 739.936,119.336037 739.936,111.848 Z M792.168,96.08 L792.168,86.72 L832.056,86.72 L832.056,96.08 L818.232,96.08 L818.232,137.264 L805.92,137.264 L805.92,96.08 L792.168,96.08 Z M858.328,137.264 L858.328,97.592 L849.616,97.592 L849.616,86.144 L871.072,86.144 L871.072,137.264 L858.328,137.264 Z M915.6,111.848 C915.6,107.431978 914.388012,103.904013 911.964,101.264 C909.539988,98.6239868 906.30002,97.304 902.244,97.304 C898.18798,97.304 894.948012,98.6239868 892.524,101.264 C890.099988,103.904013 888.888,107.431978 888.888,111.848 C888.888,116.264022 890.099988,119.791987 892.524,122.432 C894.948012,125.072013 898.18798,126.392 902.244,126.392 C906.30002,126.392 909.539988,125.072013 911.964,122.432 C914.388012,119.791987 915.6,116.264022 915.6,111.848 Z M876.36,111.848 C876.36,104.359963 878.867975,98.1800244 883.884,93.308 C888.900025,88.4359756 895.043964,86 902.316,86 C909.588036,86 915.707975,88.4359756 920.676,93.308 C925.644025,98.1800244 928.128,104.359963 928.128,111.848 C928.128,119.336037 925.632025,125.527976 920.64,130.424 C915.647975,135.320024 909.528036,137.768 902.28,137.768 C895.031964,137.768 888.900025,135.320024 883.884,130.424 C878.867975,125.527976 876.36,119.336037 876.36,111.848 Z M968.336,111.848 C968.336,107.431978 967.124012,103.904013 964.7,101.264 C962.275988,98.6239868 959.03602,97.304 954.98,97.304 C950.92398,97.304 947.684012,98.6239868 945.26,101.264 C942.835988,103.904013 941.624,107.431978 941.624,111.848 C941.624,116.264022 942.835988,119.791987 945.26,122.432 C947.684012,125.072013 950.92398,126.392 954.98,126.392 C959.03602,126.392 962.275988,125.072013 964.7,122.432 C967.124012,119.791987 968.336,116.264022 968.336,111.848 Z M929.096,111.848 C929.096,104.359963 931.603975,98.1800244 936.62,93.308 C941.636025,88.4359756 947.779964,86 955.052,86 C962.324036,86 968.443975,88.4359756 973.412,93.308 C978.380025,98.1800244 980.864,104.359963 980.864,111.848 C980.864,119.336037 978.368025,125.527976 973.376,130.424 C968.383975,135.320024 962.264036,137.768 955.016,137.768 C947.767964,137.768 941.636025,135.320024 936.62,130.424 C931.603975,125.527976 929.096,119.336037 929.096,111.848 Z" transform="translate(-543 -86)"/>
</svg>
